<svg width="15" height="14" viewBox="0 0 15 14" fill="none"
    xmlns="http://www.w3.org/2000/svg">
    <path fillRule="evenodd" clipRule="evenodd"
        d="M0 10.0004C0 10.5527 0.447715 11.0004 1 11.0004H4.38128C5.24214 11.0004 6.00642 10.4496 6.27865 9.63288L7.8228 5.00043H10C10.5523 5.00043 11 4.55271 11 4.00043C11 3.44814 10.5523 3.00043 10 3.00043H7.8228C6.96194 3.00043 6.19766 3.55129 5.92543 4.36797L4.38128 9.00043H1C0.447715 9.00043 0 9.44814 0 10.0004Z"
        fill="#E3E5EB" />
    <path
        d="M13.72 4.21521L10.5891 6.35584C10.2573 6.58274 9.80694 6.3451 9.80694 5.94309L9.80694 1.66183C9.80694 1.25982 10.2573 1.02218 10.5891 1.24908L13.72 3.38971C14.0104 3.58826 14.0104 4.01666 13.72 4.21521Z"
        fill="#E3E5EB" />
    <path d="M6 3.00043L7.5 7.50043" stroke="#202F61" strokeLinecap="round"
        strokeLinejoin="round" />
    <path d="M5 7.00043L6.5 11.5004" stroke="#202F61" strokeWidth="1.5"
        strokeLinecap="round" strokeLinejoin="round" />
    <path fillRule="evenodd" clipRule="evenodd"
        d="M0 4.00043C0 3.44814 0.447715 3.00043 1 3.00043H4.38128C5.24214 3.00043 6.00642 3.55129 6.27865 4.36797L7.8228 9.00043H10C10.5523 9.00043 11 9.44814 11 10.0004C11 10.5527 10.5523 11.0004 10 11.0004H7.8228C6.96194 11.0004 6.19766 10.4496 5.92543 9.63288L4.38128 5.00043H1C0.447715 5.00043 0 4.55271 0 4.00043Z"
        fill="#E3E5EB" />
    <path
        d="M13.72 9.78565L10.5891 7.64501C10.2573 7.41812 9.80694 7.65576 9.80694 8.05776L9.80694 12.339C9.80694 12.741 10.2573 12.9787 10.5891 12.7518L13.72 10.6111C14.0104 10.4126 14.0104 9.9842 13.72 9.78565Z"
        fill="#E3E5EB" />
</svg>